<svg id="icons" xmlns="http://www.w3.org/2000/svg" viewBox="0 0 64 64"><title>earth-globe-world</title><g id="earth-globe-world"><path d="M8,24.8l0,.05-2.55,3.4A2.26,2.26,0,0,0,5,29.6v2.87a2.17,2.17,0,0,0,.24,1l1.14,2.29a2.25,2.25,0,0,0,2,1.24h3.86a2.25,2.25,0,0,1,2.18,1.7l3.14,12.6A2.25,2.25,0,0,0,22,50.75V47.3a2.25,2.25,0,0,1,1.13-1.95l4.74-2.7A2.25,2.25,0,0,0,29,40.7V33.25A2.25,2.25,0,0,0,26.75,31H24.2a2.27,2.27,0,0,1-1.87-1l-2.66-4a2.27,2.27,0,0,0-1.87-1H8.93A2.21,2.21,0,0,1,8,24.8ZM57.77,32H62a29.84,29.84,0,0,1-6,18H51.16a4.33,4.33,0,0,0-2.56.83A4.39,4.39,0,0,0,47,53a4.39,4.39,0,0,1-4.16,3h-.45A4.38,4.38,0,0,0,38,60.39V61l0,.39A30,30,0,0,1,8.88,12.89L9,13l5.52-1.84A22.59,22.59,0,0,1,21.67,10H24.5A1.5,1.5,0,0,0,26,8.5,1.5,1.5,0,0,1,27.5,7h3A1.5,1.5,0,0,0,32,5.5V2A29.82,29.82,0,0,1,48.72,7.1L39.9,10.31A3.29,3.29,0,0,0,37.75,13l-.45,3.62a3.31,3.31,0,0,1-2.64,2.84,3.23,3.23,0,0,0-1.91,1.15A3.28,3.28,0,0,0,32,22.71v2A3.31,3.31,0,0,0,35.31,28h3.32A3.31,3.31,0,0,0,41,27l2.49-2.49A5.24,5.24,0,0,1,47.18,23a5.21,5.21,0,0,1,4.38,2.35L55,30.53A3.29,3.29,0,0,0,57.77,32Z" fill="#80deea"/><path d="M29,33.25V40.7a2.25,2.25,0,0,1-1.13,1.95l-4.74,2.7A2.25,2.25,0,0,0,22,47.3v3.45a2.25,2.25,0,0,1-4.43.55L14.43,38.7A2.25,2.25,0,0,0,12.25,37H8.39a2.25,2.25,0,0,1-2-1.24L5.24,33.47a2.17,2.17,0,0,1-.24-1V29.6a2.26,2.26,0,0,1,.45-1.35L8,24.85l0-.05a2.21,2.21,0,0,0,.92.2H17.8a2.27,2.27,0,0,1,1.87,1l2.66,4a2.27,2.27,0,0,0,1.87,1h2.55A2.25,2.25,0,0,1,29,33.25Z" fill="#35c99f"/><path d="M38,60.39A4.38,4.38,0,0,1,42.39,56h.45A4.39,4.39,0,0,0,47,53a4.39,4.39,0,0,1,1.6-2.17A4.33,4.33,0,0,1,51.16,50H56A30,30,0,0,1,38,61.39L38,61Z" fill="#35c99f"/><path d="M62,32H57.77A3.29,3.29,0,0,1,55,30.53l-3.46-5.18A5.21,5.21,0,0,0,47.18,23a5.24,5.24,0,0,0-3.72,1.54L41,27a3.31,3.31,0,0,1-2.34,1H35.31A3.31,3.31,0,0,1,32,24.69v-2a3.28,3.28,0,0,1,.75-2.09,3.23,3.23,0,0,1,1.91-1.15,3.31,3.31,0,0,0,2.64-2.84L37.75,13a3.29,3.29,0,0,1,2.15-2.7L48.72,7.1A29.94,29.94,0,0,1,62,32Z" fill="#35c99f"/><path d="M8.88,12.89A29.92,29.92,0,0,1,32,2V5.5A1.5,1.5,0,0,1,30.5,7h-3A1.5,1.5,0,0,0,26,8.5,1.5,1.5,0,0,1,24.5,10H21.67a22.59,22.59,0,0,0-7.15,1.16L9,13Z" fill="#35c99f"/><path d="M38,61v-.61A4.38,4.38,0,0,1,42.39,56h.45A4.39,4.39,0,0,0,47,53a4.39,4.39,0,0,1,1.6-2.17A4.33,4.33,0,0,1,51.16,50H56" fill="none" stroke="#2cab87" stroke-miterlimit="10" stroke-width="2"/><path d="M49,7l-.28.1L39.9,10.31A3.29,3.29,0,0,0,37.75,13l-.45,3.62a3.31,3.31,0,0,1-2.64,2.84,3.23,3.23,0,0,0-1.91,1.15A3.28,3.28,0,0,0,32,22.71v2A3.31,3.31,0,0,0,35.31,28h3.32A3.31,3.31,0,0,0,41,27l2.49-2.49A5.24,5.24,0,0,1,47.18,23a5.21,5.21,0,0,1,4.38,2.35L55,30.53A3.29,3.29,0,0,0,57.77,32H62" fill="none" stroke="#2cab87" stroke-miterlimit="10" stroke-width="2"/><path d="M32,2V5.5A1.5,1.5,0,0,1,30.5,7h-3A1.5,1.5,0,0,0,26,8.5,1.5,1.5,0,0,1,24.5,10H21.67a22.59,22.59,0,0,0-7.15,1.16L9,13" fill="none" stroke="#2cab87" stroke-miterlimit="10" stroke-width="2"/><line x1="13" y1="21" x2="15" y2="21" fill="none" stroke="#2cab87" stroke-miterlimit="10" stroke-width="2"/><line x1="17" y1="21" x2="19" y2="21" fill="none" stroke="#2cab87" stroke-miterlimit="10" stroke-width="2"/><line x1="46" y1="28" x2="48" y2="28" fill="none" stroke="#2cab87" stroke-miterlimit="10" stroke-width="2"/><path d="M5,19l.3,1,.29,1,0,.14a6.26,6.26,0,0,0,1.71,3.2A2.28,2.28,0,0,0,8.93,25H17.8a2.27,2.27,0,0,1,1.87,1l2.66,4a2.27,2.27,0,0,0,1.87,1h2.55A2.25,2.25,0,0,1,29,33.25V40.7a2.25,2.25,0,0,1-1.13,1.95l-4.74,2.7A2.25,2.25,0,0,0,22,47.3v3.45a2.25,2.25,0,0,1-4.43.55L14.43,38.7A2.25,2.25,0,0,0,12.25,37H8.39a2.25,2.25,0,0,1-2-1.24L5.24,33.47a2.17,2.17,0,0,1-.24-1V29.6a2.26,2.26,0,0,1,.45-1.35L8,24.85" fill="none" stroke="#2cab87" stroke-miterlimit="10" stroke-width="2"/><line x1="43" y1="52" x2="41" y2="52" fill="none" stroke="#2cab87" stroke-miterlimit="10" stroke-width="2"/><line x1="38" y1="54" x2="36" y2="54" fill="none" stroke="#2cab87" stroke-miterlimit="10" stroke-width="2"/><path d="M62,32A30,30,0,1,1,48.72,7.1,29.84,29.84,0,0,1,62,32Z" fill="none" stroke="#4dd0e1" stroke-miterlimit="10" stroke-width="2"/></g></svg>